HIERARCHY
ROOT Hips
{
	OFFSET -3.958830 18.904000 13.208200
	CHANNELS 6 Xposition Yposition Zposition Zrotation Yrotation Xrotation 
	JOINT LHipJoint
	{
		OFFSET 0.000000 0.000000 0.000000
		CHANNELS 3 Zrotation Yrotation Xrotation
		JOINT LeftUpLeg
		{
			OFFSET 1.800000 -1.400000 0.085000
			CHANNELS 3 Zrotation Yrotation Xrotation
			JOINT LeftLeg
			{
				OFFSET 2.215000 -6.000000 0.000000
				CHANNELS 3 Zrotation Yrotation Xrotation
				JOINT LeftFoot
				{
					OFFSET 2.500000 -6.900000 0.000000
					CHANNELS 3 Zrotation Yrotation Xrotation
					JOINT LeftToeBase
					{
						OFFSET 0.200000 -0.500000 1.950000
						CHANNELS 3 Zrotation Yrotation Xrotation
						End Site
						{
							OFFSET 0.000000 0.000000 0.000000
						}
					}
				}
			}
		}
	}
	JOINT RHipJoint
	{
		OFFSET 0.000000 0.000000 0.000000
		CHANNELS 3 Zrotation Yrotation Xrotation
		JOINT RightUpLeg
		{
			OFFSET -1.800000 -1.400000 0.085000
			CHANNELS 3 Zrotation Yrotation Xrotation
			JOINT RightLeg
			{
				OFFSET -2.215000 -6.000000 0.000000
				CHANNELS 3 Zrotation Yrotation Xrotation
				JOINT RightFoot
				{
					OFFSET -2.500000 -6.900000 0.000000
					CHANNELS 3 Zrotation Yrotation Xrotation
					JOINT RightToeBase
					{
						OFFSET -0.200000 -0.500000 1.950000
						CHANNELS 3 Zrotation Yrotation Xrotation
						End Site
						{
							OFFSET 0.000000 0.000000 0.000000
						}
					}
				}
			}
		}
	}
	JOINT LowerBack
	{
		OFFSET 0.000000 0.000000 0.000000
		CHANNELS 3 Zrotation Yrotation Xrotation
		JOINT Spine
		{
			OFFSET -0.087000 1.940000 -0.288900
			CHANNELS 3 Zrotation Yrotation Xrotation
			JOINT Spine1
			{
				OFFSET 0.000000 1.950000 0.060000
				CHANNELS 3 Zrotation Yrotation Xrotation
				JOINT Neck
				{
					OFFSET 0.000000 0.000000 0.000000
					CHANNELS 3 Zrotation Yrotation Xrotation
					JOINT Neck1
					{
						OFFSET 0.000000 1.600000 0.340000
						CHANNELS 3 Zrotation Yrotation Xrotation
						JOINT Head
						{
							OFFSET 0.000000 1.667000 -0.240000
							CHANNELS 3 Zrotation Yrotation Xrotation
							End Site
							{
								OFFSET 0.000000 0.000000 0.000000
							}
						}
					}
				}
				JOINT LeftShoulder
				{
					OFFSET 0.000000 0.000000 0.000000
					CHANNELS 3 Zrotation Yrotation Xrotation
					JOINT LeftArm
					{
						OFFSET 2.700000 1.550000 -0.730000
						CHANNELS 3 Zrotation Yrotation Xrotation
						JOINT LeftForeArm
						{
							OFFSET 5.450000 0.000000 0.000000
							CHANNELS 3 Zrotation Yrotation Xrotation
							JOINT LeftHand
							{
								OFFSET 3.450000 0.000000 0.000000
								CHANNELS 3 Zrotation Yrotation Xrotation
								JOINT LeftHandIndex1
								{
									OFFSET 0.750000 0.000000 0.000000
									CHANNELS 3 Zrotation Yrotation Xrotation
									End Site
									{
										OFFSET 0.000000 0.000000 0.000000
									}
								}
							}
						}
					}
				}
				JOINT RightShoulder
				{
					OFFSET 0.000000 0.000000 0.000000
					CHANNELS 3 Zrotation Yrotation Xrotation
					JOINT RightArm
					{
						OFFSET -2.700000 1.550000 -0.730000
						CHANNELS 3 Zrotation Yrotation Xrotation
						JOINT RightForeArm
						{
							OFFSET -5.450000 0.000000 0.000000
							CHANNELS 3 Zrotation Yrotation Xrotation
							JOINT RightHand
							{
								OFFSET -3.450000 0.000000 0.000000
								CHANNELS 3 Zrotation Yrotation Xrotation
								JOINT RightHandIndex1
								{
									OFFSET -0.750000 0.000000 0.000000
									CHANNELS 3 Zrotation Yrotation Xrotation
									End Site
									{
										OFFSET 0.000000 0.000000 0.000000
									}
								}
							}
						}
					}
				}
			}
		}
	}
}
MOTION
Frames: 4
Frame Time: 0.016667
0.604140 17.176640 -2.607360 0.518954 2.461657 6.650967 -15.078553 12.744220 2.696956 15.793438 -1.336701 -13.893879 -7.224391 5.140264 6.361410 0.015999 4.049074 3.197611 -0.149130 -0.241610 -0.150460 18.275664 -11.002263 2.441511 -24.489977 0.102205 -10.164498 0.430157 -3.808698 4.313135 -0.083144 -4.045054 2.918735 -0.103690 0.361230 0.182290 -3.760053 -0.733789 -6.920560 5.520444 1.512480 1.105600 -3.834694 1.571599 4.653128 2.551849 -0.295599 -7.021582 -2.009771 2.398639 36.385708 -1.530890 2.872240 5.851340 -26.282621 -5.970155 2.496624 -55.026984 -5.632785 -2.449490 -3.288529 -12.854239 -0.632862 -4.065297 2.991994 -0.044560 0.279240 -0.153350 0.073510 21.490882 6.872860 4.118516 60.486331 3.441683 -5.243938 9.435372 15.958172 -0.197448 2.589320 -1.334008 -0.091900 0.027820 0.133710 0.045710 
0.603090 17.176170 -2.608060 0.497292 2.474207 6.549719 -15.074560 12.746274 2.693668 16.016476 -1.310316 -14.067667 -7.436032 5.298956 6.924519 0.018248 4.091781 3.174710 -0.142800 -0.234950 -0.143430 18.277055 -11.020546 2.436008 -24.646468 0.073466 -10.289164 0.713146 -3.897374 4.655324 -0.083308 -4.052623 2.909471 -0.101060 0.353570 0.182850 -3.767976 -0.704626 -6.922383 5.576687 1.625065 1.189519 -3.817379 1.684211 4.705503 2.592982 -0.200969 -7.047498 -1.850897 2.296729 36.507313 -1.615940 2.885000 5.766310 -26.112383 -6.017034 2.473258 -55.107300 -5.861684 -2.326971 -3.483709 -12.660012 -0.607207 -4.062612 2.992702 -0.041410 0.275410 -0.148040 0.073880 21.240839 6.870007 4.149356 60.570131 3.461111 -5.230889 9.691224 15.918583 -0.174131 2.590738 -1.337514 -0.089540 0.024880 0.128460 0.043720 
0.602900 17.178610 -2.608410 0.503449 2.550175 6.353380 -15.068674 12.752044 2.695278 16.226632 -1.294843 -14.311188 -7.654765 5.476240 7.587976 0.023514 4.140104 3.150147 -0.145890 -0.245170 -0.142590 18.276542 -11.048996 2.432615 -24.951245 0.023551 -10.419807 1.206520 -4.062638 5.211909 -0.080683 -4.077716 2.888800 -0.109550 0.348670 0.184560 -3.776647 -0.670348 -6.941253 5.624439 1.764070 1.300780 -3.765535 1.833170 4.703788 2.600597 -0.117658 -7.207077 -1.797797 2.005914 37.040748 -1.640640 2.563970 6.116990 -26.164465 -6.414874 2.574429 -55.113200 -6.022163 -2.233515 -3.335673 -12.352693 -0.617139 -4.056850 2.995351 -0.036120 0.269340 -0.145670 0.072400 21.278768 7.272178 4.360245 60.460800 3.306935 -5.271763 9.742903 15.831602 -0.161728 2.595281 -1.338848 -0.088270 0.018600 0.128910 0.043360 
0.596940 17.182970 -2.614120 0.461159 2.869231 6.219902 -15.065855 12.740711 2.716435 16.597378 -1.315204 -14.847331 -7.961401 5.683657 8.298365 0.033493 4.200504 3.121212 -0.156020 -0.258490 -0.150270 18.274876 -11.082576 2.414556 -25.218475 -0.040761 -10.586258 1.807636 -4.275896 5.990123 -0.070419 -4.109965 2.871107 -0.119250 0.353580 0.182950 -3.781343 -0.618501 -6.963576 5.573418 1.858859 1.437573 -3.706482 1.934100 4.724683 2.612187 0.216916 -7.370020 -1.233354 1.599647 37.364694 -1.479880 2.167700 6.627560 -26.149596 -6.927625 2.767474 -55.061801 -6.105207 -2.256333 -3.403190 -12.422504 -0.607182 -4.054395 2.999393 -0.040970 0.270830 -0.150880 0.072230 21.256663 7.603887 4.494998 60.621277 3.255365 -5.286182 9.467356 15.654804 -0.191124 2.600451 -1.339260 -0.088190 0.016230 0.131380 0.047200 
